# Blender v2.91.0 OBJ File: 'Cessna152forp5.blend'
# www.blender.org
mtllib planeYokeButtonBase.mtl
o Cylinder.076_Cylinder.067
v -22.712372 -63.472767 14.250996
v -22.652086 -63.149429 13.249435
v -22.609783 -63.464233 14.259924
v -22.549498 -63.140896 13.258364
v -22.511284 -63.436760 14.274725
v -22.450998 -63.113422 13.273165
v -22.420654 -63.391384 14.294828
v -22.360369 -63.068047 13.293268
v -22.341377 -63.329861 14.319460
v -22.281092 -63.006523 13.317900
v -22.276501 -63.254551 14.347679
v -22.216215 -62.931213 13.346119
v -22.228521 -63.168346 14.378395
v -22.168236 -62.845009 13.376835
v -22.199278 -63.074566 14.410433
v -22.138992 -62.751228 13.408873
v -22.189896 -62.976807 14.442558
v -22.129610 -62.653469 13.440998
v -22.200737 -62.878826 14.473536
v -22.140451 -62.555489 13.471975
v -22.231384 -62.784397 14.502176
v -22.171099 -62.461060 13.500616
v -22.280657 -62.697140 14.527380
v -22.220371 -62.373802 13.525820
v -22.346666 -62.620411 14.548176
v -22.286381 -62.297073 13.546616
v -22.426874 -62.557163 14.563768
v -22.366589 -62.233826 13.562208
v -22.518194 -62.509819 14.573557
v -22.457909 -62.186481 13.571997
v -22.617121 -62.480209 14.577160
v -22.556835 -62.156872 13.575600
v -22.719852 -62.469456 14.574450
v -22.659567 -62.146118 13.572889
v -22.822443 -62.477989 14.565519
v -22.762157 -62.154652 13.563959
v -22.920942 -62.505459 14.550722
v -22.860657 -62.182121 13.549162
v -23.011574 -62.550835 14.530617
v -22.951288 -62.227497 13.529057
v -23.090849 -62.612358 14.505983
v -23.030563 -62.289021 13.504423
v -23.155725 -62.687668 14.477766
v -23.095440 -62.364330 13.476206
v -23.203707 -62.773876 14.447048
v -23.143421 -62.450539 13.445488
v -23.232948 -62.867657 14.415012
v -23.172663 -62.544319 13.413452
v -23.242329 -62.965416 14.382887
v -23.182043 -62.642078 13.381327
v -23.231489 -63.063396 14.351910
v -23.171204 -62.740059 13.350349
v -23.200842 -63.157825 14.323267
v -23.140556 -62.834488 13.321707
v -23.151569 -63.245079 14.298065
v -23.091284 -62.921741 13.296505
v -23.085560 -63.321808 14.277267
v -23.025274 -62.998470 13.275707
v -23.005352 -63.385056 14.261677
v -22.945066 -63.061718 13.260117
v -22.914032 -63.432400 14.251890
v -22.853746 -63.109062 13.250330
v -22.815104 -63.462017 14.248281
v -22.754818 -63.138680 13.246721
vt 1.000000 0.500000
vt 1.000000 1.000000
vt 0.968750 1.000000
vt 0.968750 0.500000
vt 0.937500 1.000000
vt 0.937500 0.500000
vt 0.906250 1.000000
vt 0.906250 0.500000
vt 0.875000 1.000000
vt 0.875000 0.500000
vt 0.843750 1.000000
vt 0.843750 0.500000
vt 0.812500 1.000000
vt 0.812500 0.500000
vt 0.781250 1.000000
vt 0.781250 0.500000
vt 0.750000 1.000000
vt 0.750000 0.500000
vt 0.718750 1.000000
vt 0.718750 0.500000
vt 0.687500 1.000000
vt 0.687500 0.500000
vt 0.656250 1.000000
vt 0.656250 0.500000
vt 0.625000 1.000000
vt 0.625000 0.500000
vt 0.593750 1.000000
vt 0.593750 0.500000
vt 0.562500 1.000000
vt 0.562500 0.500000
vt 0.531250 1.000000
vt 0.531250 0.500000
vt 0.500000 1.000000
vt 0.500000 0.500000
vt 0.468750 1.000000
vt 0.468750 0.500000
vt 0.437500 1.000000
vt 0.437500 0.500000
vt 0.406250 1.000000
vt 0.406250 0.500000
vt 0.375000 1.000000
vt 0.375000 0.500000
vt 0.343750 1.000000
vt 0.343750 0.500000
vt 0.312500 1.000000
vt 0.312500 0.500000
vt 0.281250 1.000000
vt 0.281250 0.500000
vt 0.250000 1.000000
vt 0.250000 0.500000
vt 0.218750 1.000000
vt 0.218750 0.500000
vt 0.187500 1.000000
vt 0.187500 0.500000
vt 0.156250 1.000000
vt 0.156250 0.500000
vt 0.125000 1.000000
vt 0.125000 0.500000
vt 0.093750 1.000000
vt 0.093750 0.500000
vt 0.062500 1.000000
vt 0.062500 0.500000
vt 0.296822 0.485388
vt 0.250000 0.490000
vt 0.203179 0.485389
vt 0.158156 0.471731
vt 0.116663 0.449553
vt 0.080295 0.419706
vt 0.050447 0.383337
vt 0.028269 0.341844
vt 0.014612 0.296822
vt 0.010000 0.250000
vt 0.014611 0.203179
vt 0.028269 0.158156
vt 0.050447 0.116663
vt 0.080294 0.080294
vt 0.116663 0.050447
vt 0.158156 0.028269
vt 0.203178 0.014612
vt 0.250000 0.010000
vt 0.296822 0.014612
vt 0.341844 0.028269
vt 0.383337 0.050447
vt 0.419706 0.080294
vt 0.449553 0.116663
vt 0.471731 0.158156
vt 0.485388 0.203178
vt 0.490000 0.250000
vt 0.485388 0.296822
vt 0.471731 0.341844
vt 0.449553 0.383337
vt 0.419706 0.419706
vt 0.383337 0.449553
vt 0.341844 0.471731
vt 0.031250 1.000000
vt 0.031250 0.500000
vt 0.000000 1.000000
vt 0.000000 0.500000
vt 0.750000 0.490000
vt 0.796822 0.485388
vt 0.841844 0.471731
vt 0.883337 0.449553
vt 0.919706 0.419706
vt 0.949553 0.383337
vt 0.971731 0.341844
vt 0.985388 0.296822
vt 0.990000 0.250000
vt 0.985388 0.203178
vt 0.971731 0.158156
vt 0.949553 0.116663
vt 0.919706 0.080294
vt 0.883337 0.050447
vt 0.841844 0.028269
vt 0.796822 0.014612
vt 0.750000 0.010000
vt 0.703178 0.014612
vt 0.658156 0.028269
vt 0.616663 0.050447
vt 0.580294 0.080294
vt 0.550447 0.116663
vt 0.528269 0.158156
vt 0.514611 0.203179
vt 0.510000 0.250000
vt 0.514612 0.296822
vt 0.528269 0.341844
vt 0.550447 0.383337
vt 0.580295 0.419706
vt 0.616663 0.449553
vt 0.658156 0.471731
vt 0.703179 0.485389
vn 0.1050 -0.9482 -0.2998
vn 0.2966 -0.9139 -0.2772
vn 0.4769 -0.8444 -0.2439
vn 0.6388 -0.7426 -0.2013
vn 0.7762 -0.6121 -0.1509
vn 0.8838 -0.4581 -0.0947
vn 0.9574 -0.2866 -0.0349
vn 0.9942 -0.1040 0.0263
vn 0.9928 0.0825 0.0864
vn 0.9533 0.2660 0.1432
vn 0.8771 0.4391 0.1945
vn 0.7672 0.5954 0.2384
vn 0.6278 0.7289 0.2731
vn 0.4644 0.8343 0.2973
vn 0.2830 0.9076 0.3100
vn 0.0908 0.9461 0.3109
vn -0.1050 0.9482 0.2998
vn -0.2965 0.9139 0.2772
vn -0.4769 0.8444 0.2439
vn -0.6388 0.7426 0.2013
vn -0.7762 0.6121 0.1509
vn -0.8838 0.4582 0.0947
vn -0.9574 0.2866 0.0349
vn -0.9942 0.1040 -0.0263
vn -0.9928 -0.0825 -0.0864
vn -0.9533 -0.2659 -0.1432
vn -0.8771 -0.4391 -0.1946
vn -0.7672 -0.5954 -0.2384
vn -0.6278 -0.7289 -0.2731
vn -0.4644 -0.8343 -0.2973
vn 0.0572 0.3067 -0.9501
vn -0.2830 -0.9076 -0.3100
vn -0.0908 -0.9461 -0.3109
vn -0.0572 -0.3067 0.9501
usemtl None
s off
f 1/1/1 2/2/1 4/3/1 3/4/1
f 3/4/2 4/3/2 6/5/2 5/6/2
f 5/6/3 6/5/3 8/7/3 7/8/3
f 7/8/4 8/7/4 10/9/4 9/10/4
f 9/10/5 10/9/5 12/11/5 11/12/5
f 11/12/6 12/11/6 14/13/6 13/14/6
f 13/14/7 14/13/7 16/15/7 15/16/7
f 15/16/8 16/15/8 18/17/8 17/18/8
f 17/18/9 18/17/9 20/19/9 19/20/9
f 19/20/10 20/19/10 22/21/10 21/22/10
f 21/22/11 22/21/11 24/23/11 23/24/11
f 23/24/12 24/23/12 26/25/12 25/26/12
f 25/26/13 26/25/13 28/27/13 27/28/13
f 27/28/14 28/27/14 30/29/14 29/30/14
f 29/30/15 30/29/15 32/31/15 31/32/15
f 31/32/16 32/31/16 34/33/16 33/34/16
f 33/34/17 34/33/17 36/35/17 35/36/17
f 35/36/18 36/35/18 38/37/18 37/38/18
f 37/38/19 38/37/19 40/39/19 39/40/19
f 39/40/20 40/39/20 42/41/20 41/42/20
f 41/42/21 42/41/21 44/43/21 43/44/21
f 43/44/22 44/43/22 46/45/22 45/46/22
f 45/46/23 46/45/23 48/47/23 47/48/23
f 47/48/24 48/47/24 50/49/24 49/50/24
f 49/50/25 50/49/25 52/51/25 51/52/25
f 51/52/26 52/51/26 54/53/26 53/54/26
f 53/54/27 54/53/27 56/55/27 55/56/27
f 55/56/28 56/55/28 58/57/28 57/58/28
f 57/58/29 58/57/29 60/59/29 59/60/29
f 59/60/30 60/59/30 62/61/30 61/62/30
f 4/63/31 2/64/31 64/65/31 62/66/31 60/67/31 58/68/31 56/69/31 54/70/31 52/71/31 50/72/31 48/73/31 46/74/31 44/75/31 42/76/31 40/77/31 38/78/31 36/79/31 34/80/31 32/81/31 30/82/31 28/83/31 26/84/31 24/85/31 22/86/31 20/87/31 18/88/31 16/89/31 14/90/31 12/91/31 10/92/31 8/93/31 6/94/31
f 61/62/32 62/61/32 64/95/32 63/96/32
f 63/96/33 64/95/33 2/97/33 1/98/33
f 1/99/34 3/100/34 5/101/34 7/102/34 9/103/34 11/104/34 13/105/34 15/106/34 17/107/34 19/108/34 21/109/34 23/110/34 25/111/34 27/112/34 29/113/34 31/114/34 33/115/34 35/116/34 37/117/34 39/118/34 41/119/34 43/120/34 45/121/34 47/122/34 49/123/34 51/124/34 53/125/34 55/126/34 57/127/34 59/128/34 61/129/34 63/130/34
