# Blender v2.91.0 OBJ File: 'Cessna152forp5.blend'
# www.blender.org
mtllib planeThrottle.mtl
o Cylinder.003
v -1.115332 41.624416 -10.755894
v -1.115332 11.906585 -10.755896
v -0.941149 41.624416 -10.773049
v -0.941149 11.906585 -10.773050
v -0.773659 41.624416 -10.823856
v -0.773659 11.906585 -10.823858
v -0.619300 41.624416 -10.906363
v -0.619300 11.906585 -10.906364
v -0.484003 41.624416 -11.017399
v -0.484003 11.906585 -11.017400
v -0.372968 41.624416 -11.152696
v -0.372968 11.906585 -11.152698
v -0.290461 41.624416 -11.307055
v -0.290461 11.906585 -11.307056
v -0.239654 41.624416 -11.474545
v -0.239654 11.906585 -11.474545
v -0.222498 41.624416 -11.648727
v -0.222498 11.906585 -11.648729
v -0.239653 41.624416 -11.822911
v -0.239653 11.906585 -11.822912
v -0.290461 41.624416 -11.990400
v -0.290461 11.906585 -11.990401
v -0.372968 41.624416 -12.144759
v -0.372968 11.906585 -12.144761
v -0.484003 41.624416 -12.280057
v -0.484003 11.906585 -12.280058
v -0.619300 41.624416 -12.391092
v -0.619300 11.906585 -12.391093
v -0.773659 41.624416 -12.473598
v -0.773659 11.906585 -12.473600
v -0.941149 41.624416 -12.524406
v -0.941149 11.906585 -12.524407
v -1.115332 41.624416 -12.541561
v -1.115332 11.906585 -12.541563
v -1.289515 41.624416 -12.524405
v -1.289515 11.906585 -12.524407
v -1.457005 41.624416 -12.473598
v -1.457005 11.906585 -12.473599
v -1.611364 41.624416 -12.391091
v -1.611364 11.906585 -12.391093
v -1.746661 41.624416 -12.280056
v -1.746661 11.906585 -12.280058
v -1.857696 41.624416 -12.144759
v -1.857696 11.906585 -12.144760
v -1.940203 41.624416 -11.990399
v -1.940203 11.906585 -11.990401
v -1.991010 41.624416 -11.822910
v -1.991010 11.906585 -11.822911
v -2.008166 41.624416 -11.648726
v -2.008166 11.906585 -11.648728
v -1.991010 41.624416 -11.474544
v -1.991010 11.906585 -11.474545
v -1.940202 41.624416 -11.307055
v -1.940202 11.906585 -11.307055
v -1.857695 41.624416 -11.152695
v -1.857695 11.906585 -11.152697
v -1.746660 41.624416 -11.017398
v -1.746660 11.906585 -11.017400
v -1.611363 41.624416 -10.906363
v -1.611363 11.906585 -10.906364
v -1.457003 41.624416 -10.823856
v -1.457003 11.906585 -10.823857
v -1.289514 41.624416 -10.773049
v -1.289514 11.906585 -10.773050
v -1.122717 13.810320 -7.073846
v -1.122717 7.414375 -7.510089
v -0.231572 13.810320 -7.161616
v -0.316679 7.414375 -7.589477
v 0.625326 13.810320 -7.421554
v 0.458383 7.414375 -7.824589
v 1.415048 13.810320 -7.843668
v 1.172685 7.414375 -8.206391
v 2.107245 13.810320 -8.411740
v 1.798775 7.414375 -8.720211
v 2.675316 13.810320 -9.103937
v 2.312595 7.414375 -9.346301
v 3.097432 13.810320 -9.893660
v 2.694396 7.414375 -10.060602
v 3.357369 13.810320 -10.750558
v 2.929509 7.414375 -10.835665
v 3.445139 13.810320 -11.641702
v 3.008897 7.414375 -11.641703
v 3.357369 13.810320 -12.532846
v 2.929509 7.414375 -12.447740
v 3.097432 13.810320 -13.389744
v 2.694396 7.414375 -13.222802
v 2.675316 13.810320 -14.179466
v 2.312595 7.414375 -13.937104
v 2.107245 13.810320 -14.871664
v 1.798775 7.414375 -14.563194
v 1.415048 13.810320 -15.439735
v 1.172684 7.414375 -15.077014
v 0.625325 13.810320 -15.861851
v 0.458383 7.414375 -15.458817
v -0.231573 13.810320 -16.121788
v -0.316680 7.414375 -15.693929
v -1.122718 13.810320 -16.209558
v -1.122718 7.414375 -15.773316
v -2.013863 13.810320 -16.121788
v -1.928756 7.414375 -15.693928
v -2.870762 13.810320 -15.861850
v -2.703819 7.414375 -15.458815
v -3.660484 13.810320 -15.439734
v -3.418120 7.414375 -15.077013
v -4.352681 13.810320 -14.871662
v -4.044211 7.414375 -14.563193
v -4.920752 13.810320 -14.179464
v -4.558030 7.414375 -13.937102
v -5.342867 13.810320 -13.389742
v -4.939831 7.414375 -13.222799
v -5.602803 13.810320 -12.532843
v -5.174943 7.414375 -12.447737
v -5.690573 13.810320 -11.641698
v -5.254330 7.414375 -11.641699
v -5.602801 13.810320 -10.750553
v -5.174942 7.414375 -10.835661
v -5.342863 13.810320 -9.893655
v -4.939829 7.414375 -10.060598
v -4.920747 13.810320 -9.103932
v -4.558025 7.414375 -9.346296
v -4.352674 13.810320 -8.411736
v -4.044205 7.414375 -8.720207
v -3.660477 13.810320 -7.843665
v -3.418114 7.414375 -8.206388
v -2.870753 13.810320 -7.421551
v -2.703811 7.414375 -7.824587
v -2.013855 13.810320 -7.161615
v -1.928748 7.414375 -7.589476
v -0.443947 7.627611 -8.229299
v -1.122717 7.627611 -8.162445
v 0.208737 7.627611 -8.427288
v 0.810255 7.627611 -8.748806
v 1.337490 7.627611 -9.181496
v 1.770181 7.627611 -9.708731
v 2.091698 7.627611 -10.310248
v 2.289688 7.627611 -10.962933
v 2.356541 7.627611 -11.641703
v 2.289688 7.627611 -12.320472
v 2.091698 7.627611 -12.973156
v 1.770181 7.627611 -13.574675
v 1.337490 7.627611 -14.101909
v 0.810255 7.627611 -14.534599
v 0.208737 7.627611 -14.856117
v -0.443948 7.627611 -15.054108
v -1.122718 7.627611 -15.120960
v -1.801488 7.627611 -15.054107
v -2.454173 7.627611 -14.856117
v -3.055690 7.627611 -14.534598
v -3.582925 7.627611 -14.101908
v -4.015615 7.627611 -13.574673
v -4.337132 7.627611 -12.973154
v -4.535122 7.627611 -12.320469
v -4.601974 7.627611 -11.641699
v -4.535120 7.627611 -10.962930
v -4.337130 7.627611 -10.310245
v -4.015611 7.627611 -9.708727
v -3.582920 7.627611 -9.181493
v -3.055685 7.627611 -8.748803
v -2.454166 7.627611 -8.427286
v -1.801481 7.627611 -8.229298
v -0.455736 7.350637 -8.288562
v -1.122717 7.350637 -8.222870
v 0.185614 7.350637 -8.483112
v 0.776685 7.350637 -8.799047
v 1.294764 7.350637 -9.224222
v 1.719940 7.350637 -9.742301
v 2.035873 7.350637 -10.333372
v 2.230424 7.350637 -10.974721
v 2.296116 7.350637 -11.641703
v 2.230424 7.350637 -12.308683
v 2.035873 7.350637 -12.950033
v 1.719940 7.350637 -13.541104
v 1.294764 7.350637 -14.059183
v 0.776685 7.350637 -14.484359
v 0.185613 7.350637 -14.800293
v -0.455736 7.350637 -14.994843
v -1.122718 7.350637 -15.060535
v -1.789699 7.350637 -14.994843
v -2.431049 7.350637 -14.800292
v -3.022120 7.350637 -14.484358
v -3.540198 7.350637 -14.059181
v -3.965374 7.350637 -13.541102
v -4.281308 7.350637 -12.950031
v -4.475859 7.350637 -12.308681
v -4.541550 7.350637 -11.641699
v -4.475857 7.350637 -10.974718
v -4.281305 7.350637 -10.333368
v -3.965370 7.350637 -9.742297
v -3.540194 7.350637 -9.224219
v -3.022115 7.350637 -8.799044
v -2.431043 7.350637 -8.483110
v -1.789693 7.350637 -8.288561
vt 0.080226 0.835422
vt 0.036208 0.731186
vt 0.047232 0.716132
vt 0.080432 0.835878
vt 0.059485 0.705747
vt 0.080588 0.836407
vt 0.072495 0.700431
vt 0.080690 0.836989
vt 0.085766 0.700388
vt 0.080734 0.837602
vt 0.098785 0.705620
vt 0.080717 0.838220
vt 0.111052 0.715923
vt 0.080640 0.838820
vt 0.122095 0.730895
vt 0.080503 0.839378
vt 0.131507 0.749984
vt 0.080323 0.839876
vt 0.138880 0.772508
vt 0.080096 0.840288
vt 0.143959 0.797529
vt 0.079835 0.840604
vt 0.146547 0.824083
vt 0.079550 0.840813
vt 0.146547 0.851154
vt 0.079250 0.840902
vt 0.143960 0.877700
vt 0.078948 0.840870
vt 0.138886 0.902697
vt 0.078655 0.840720
vt 0.131526 0.925185
vt 0.078382 0.840456
vt 0.122154 0.944326
vt 0.078135 0.840089
vt 0.111130 0.959380
vt 0.077929 0.839631
vt 0.098876 0.969767
vt 0.077772 0.839102
vt 0.085862 0.975083
vt 0.077670 0.838521
vt 0.072588 0.975124
vt 0.077626 0.837911
vt 0.059568 0.969889
vt 0.077643 0.837294
vt 0.047301 0.959582
vt 0.077721 0.836696
vt 0.036259 0.944608
vt 0.077857 0.836140
vt 0.026850 0.925519
vt 0.078039 0.835640
vt 0.019479 0.902999
vt 0.078267 0.835226
vt 0.014402 0.877979
vt 0.078528 0.834911
vt 0.011814 0.851422
vt 0.078813 0.834703
vt 0.011815 0.824350
vt 0.079112 0.834614
vt 0.014404 0.797805
vt 0.079414 0.834644
vt 0.019478 0.772811
vt 0.079707 0.834794
vt 0.296822 0.485388
vt 0.250000 0.490000
vt 0.203179 0.485389
vt 0.158156 0.471731
vt 0.116663 0.449553
vt 0.080295 0.419706
vt 0.050447 0.383337
vt 0.028269 0.341844
vt 0.014612 0.296822
vt 0.010000 0.250000
vt 0.014611 0.203179
vt 0.028269 0.158156
vt 0.050447 0.116663
vt 0.080294 0.080294
vt 0.116663 0.050447
vt 0.158156 0.028269
vt 0.203178 0.014612
vt 0.250000 0.010000
vt 0.296822 0.014612
vt 0.341844 0.028269
vt 0.383337 0.050447
vt 0.419706 0.080294
vt 0.449553 0.116663
vt 0.471731 0.158156
vt 0.485388 0.203178
vt 0.490000 0.250000
vt 0.485388 0.296822
vt 0.471731 0.341844
vt 0.449553 0.383337
vt 0.419706 0.419706
vt 0.383337 0.449553
vt 0.341844 0.471731
vt 0.026837 0.750326
vt 0.079981 0.835057
vt 0.436580 0.619984
vt 0.517264 0.669238
vt 0.510711 0.701384
vt 0.436348 0.621308
vt 0.501177 0.730334
vt 0.435990 0.622508
vt 0.489028 0.754971
vt 0.435519 0.623538
vt 0.474732 0.774354
vt 0.434958 0.624371
vt 0.458839 0.787736
vt 0.434326 0.624959
vt 0.441964 0.794605
vt 0.433646 0.625280
vt 0.424758 0.794695
vt 0.432943 0.625320
vt 0.407865 0.788004
vt 0.432250 0.625133
vt 0.391937 0.774788
vt 0.431591 0.624669
vt 0.377589 0.755553
vt 0.430993 0.623949
vt 0.365376 0.731041
vt 0.430478 0.623000
vt 0.355767 0.702187
vt 0.430064 0.621874
vt 0.349131 0.670106
vt 0.429771 0.620606
vt 0.345725 0.636036
vt 0.429610 0.619245
vt 0.345681 0.601294
vt 0.429589 0.617844
vt 0.348999 0.567191
vt 0.429687 0.616443
vt 0.355552 0.535046
vt 0.429922 0.615113
vt 0.365088 0.506093
vt 0.430277 0.613909
vt 0.377240 0.481451
vt 0.430745 0.612875
vt 0.391539 0.462067
vt 0.431304 0.612049
vt 0.407434 0.448685
vt 0.431934 0.611466
vt 0.424311 0.441820
vt 0.432613 0.611147
vt 0.441517 0.441734
vt 0.433312 0.611111
vt 0.458409 0.448429
vt 0.434011 0.611305
vt 0.474333 0.461646
vt 0.434675 0.611777
vt 0.488679 0.480882
vt 0.435275 0.612491
vt 0.500891 0.505399
vt 0.435791 0.613433
vt 0.510500 0.534254
vt 0.436203 0.614560
vt 0.517135 0.566334
vt 0.436495 0.615828
vt 0.520540 0.600402
vt 0.436655 0.617189
vt 0.422770 0.831818
vt 0.402326 0.823638
vt 0.520583 0.635138
vt 0.436675 0.618590
vt 0.402230 0.412848
vt 0.382971 0.428958
vt 0.377993 0.409945
vt 0.399186 0.392247
vt 0.331337 0.556004
vt 0.339310 0.517117
vt 0.483212 0.428874
vt 0.500556 0.452230
vt 0.500633 0.784070
vt 0.483300 0.807457
vt 0.339360 0.719492
vt 0.331368 0.680619
vt 0.422670 0.404630
vt 0.538974 0.597087
vt 0.538984 0.639157
vt 0.383059 0.807564
vt 0.350891 0.482114
vt 0.515311 0.481971
vt 0.464045 0.823569
vt 0.327289 0.639352
vt 0.443507 0.404612
vt 0.534924 0.680426
vt 0.526951 0.719309
vt 0.365714 0.784210
vt 0.365634 0.452346
vt 0.526907 0.516952
vt 0.443607 0.831794
vt 0.327278 0.597278
vt 0.463949 0.412798
vt 0.515372 0.754306
vt 0.350957 0.754472
vt 0.534897 0.555824
vt 0.070227 0.997527
vt 0.055699 0.991695
vt 0.042014 0.980255
vt 0.029697 0.963647
vt 0.019223 0.942510
vt 0.010994 0.917654
vt 0.005325 0.890036
vt 0.002435 0.860717
vt 0.002435 0.830824
vt 0.005325 0.801505
vt 0.010993 0.773887
vt 0.019223 0.749032
vt 0.029697 0.727894
vt 0.042013 0.711286
vt 0.055699 0.699846
vt 0.070227 0.694014
vt 0.085039 0.694014
vt 0.099567 0.699846
vt 0.113252 0.711286
vt 0.125569 0.727894
vt 0.136043 0.749032
vt 0.144272 0.773887
vt 0.149941 0.801505
vt 0.152831 0.830824
vt 0.152831 0.860717
vt 0.149941 0.890036
vt 0.144272 0.917654
vt 0.136043 0.942510
vt 0.125569 0.963647
vt 0.113252 0.980255
vt 0.099567 0.991695
vt 0.085039 0.997527
vt 0.421680 0.853198
vt 0.399190 0.844183
vt 0.421675 0.383231
vt 0.377997 0.826484
vt 0.444599 0.383234
vt 0.358918 0.800776
vt 0.467086 0.392256
vt 0.342690 0.768045
vt 0.488275 0.409956
vt 0.329939 0.729548
vt 0.507352 0.435666
vt 0.321157 0.686771
vt 0.523578 0.468399
vt 0.316680 0.641365
vt 0.545107 0.686762
vt 0.536326 0.729534
vt 0.536328 0.506898
vt 0.316679 0.595074
vt 0.523578 0.768026
vt 0.545107 0.549673
vt 0.321154 0.549668
vt 0.507353 0.800756
vt 0.549582 0.595076
vt 0.329934 0.506892
vt 0.488279 0.826465
vt 0.549582 0.641361
vt 0.342684 0.468392
vt 0.467090 0.844167
vt 0.358912 0.435656
vt 0.444604 0.853191
vn 0.0980 -0.0000 0.9952
vn 0.2903 -0.0000 0.9569
vn 0.4714 -0.0000 0.8819
vn 0.6344 -0.0000 0.7730
vn 0.7730 -0.0000 0.6344
vn 0.8819 -0.0000 0.4714
vn 0.9569 -0.0000 0.2903
vn 0.9952 -0.0000 0.0980
vn 0.9952 0.0000 -0.0980
vn 0.9569 0.0000 -0.2903
vn 0.8819 0.0000 -0.4714
vn 0.7730 0.0000 -0.6344
vn 0.6344 0.0000 -0.7730
vn 0.4714 0.0000 -0.8819
vn 0.2903 0.0000 -0.9569
vn 0.0980 0.0000 -0.9952
vn -0.0980 0.0000 -0.9952
vn -0.2903 0.0000 -0.9569
vn -0.4714 0.0000 -0.8819
vn -0.6344 0.0000 -0.7730
vn -0.7730 0.0000 -0.6344
vn -0.8819 0.0000 -0.4714
vn -0.9569 0.0000 -0.2903
vn -0.9952 0.0000 -0.0980
vn -0.9952 -0.0000 0.0980
vn -0.9569 -0.0000 0.2903
vn -0.8819 -0.0000 0.4714
vn -0.7730 -0.0000 0.6344
vn -0.6344 -0.0000 0.7730
vn -0.4714 -0.0000 0.8819
vn 0.0000 -1.0000 0.0000
vn -0.2903 -0.0000 0.9569
vn -0.0980 -0.0000 0.9952
vn 0.0000 1.0000 0.0000
vn 0.0978 -0.0677 0.9929
vn 0.2896 -0.0677 0.9547
vn 0.4703 -0.0677 0.8799
vn 0.6329 -0.0677 0.7712
vn 0.7712 -0.0677 0.6329
vn 0.8799 -0.0677 0.4703
vn 0.9547 -0.0677 0.2896
vn 0.9929 -0.0677 0.0978
vn 0.9929 -0.0677 -0.0978
vn 0.9547 -0.0677 -0.2896
vn 0.8799 -0.0677 -0.4703
vn 0.7712 -0.0677 -0.6329
vn 0.6329 -0.0677 -0.7712
vn 0.4703 -0.0677 -0.8799
vn 0.2896 -0.0677 -0.9547
vn 0.0978 -0.0677 -0.9929
vn -0.0978 -0.0677 -0.9929
vn -0.2896 -0.0677 -0.9547
vn -0.4703 -0.0677 -0.8799
vn -0.6329 -0.0677 -0.7712
vn -0.7712 -0.0677 -0.6329
vn -0.8799 -0.0677 -0.4703
vn -0.9547 -0.0677 -0.2896
vn -0.9929 -0.0677 -0.0978
vn -0.9929 -0.0677 0.0978
vn -0.9547 -0.0677 0.2896
vn -0.8799 -0.0677 0.4703
vn -0.7712 -0.0677 0.6329
vn -0.6329 -0.0677 0.7712
vn -0.4703 -0.0677 0.8799
vn -0.3105 -0.9501 -0.0306
vn -0.2896 -0.0677 0.9547
vn -0.0978 -0.0677 0.9929
vn -0.7554 -0.2122 -0.6200
vn 0.0306 -0.9501 0.3105
vn 0.2986 -0.9501 -0.0906
vn -0.1980 -0.9501 -0.2412
vn -0.1980 -0.9501 0.2412
vn 0.2752 -0.9501 0.1471
vn 0.0906 -0.9501 -0.2986
vn -0.3105 -0.9501 0.0306
vn 0.0906 -0.9501 0.2986
vn 0.2752 -0.9501 -0.1471
vn -0.2412 -0.9501 -0.1980
vn -0.1471 -0.9501 0.2752
vn 0.2986 -0.9501 0.0906
vn -0.0306 -0.9501 -0.3105
vn 0.0306 -0.9501 -0.3105
vn -0.2986 -0.9501 0.0906
vn 0.1471 -0.9501 0.2752
vn 0.2412 -0.9501 -0.1980
vn -0.2752 -0.9501 -0.1471
vn -0.0906 -0.9501 0.2986
vn 0.3105 -0.9501 0.0306
vn -0.0906 -0.9501 -0.2986
vn -0.2752 -0.9501 0.1471
vn 0.1980 -0.9501 0.2412
vn 0.1980 -0.9501 -0.2412
vn -0.2986 -0.9501 -0.0906
vn -0.0306 -0.9501 0.3105
vn 0.3105 -0.9501 -0.0306
vn -0.1471 -0.9501 -0.2752
vn -0.2412 -0.9501 0.1980
vn 0.2412 -0.9501 0.1980
vn 0.1471 -0.9501 -0.2752
vn 0.9725 -0.2122 0.0958
vn -0.8618 -0.2122 -0.4607
vn 0.9725 -0.2122 -0.0958
vn -0.9352 -0.2122 -0.2837
vn 0.9352 -0.2122 -0.2837
vn -0.9725 -0.2122 -0.0958
vn 0.8618 -0.2122 -0.4607
vn -0.9725 -0.2122 0.0958
vn 0.7554 -0.2122 -0.6200
vn -0.9352 -0.2122 0.2837
vn 0.6199 -0.2122 -0.7554
vn -0.8618 -0.2122 0.4607
vn 0.4607 -0.2122 -0.8618
vn 0.0958 -0.2122 0.9725
vn -0.7554 -0.2122 0.6200
vn 0.2837 -0.2122 -0.9352
vn 0.2837 -0.2122 0.9352
vn -0.6199 -0.2122 0.7554
vn 0.0958 -0.2122 -0.9725
vn 0.4607 -0.2122 0.8618
vn -0.4607 -0.2122 0.8618
vn -0.0958 -0.2122 -0.9725
vn 0.6200 -0.2122 0.7554
vn -0.2837 -0.2122 0.9352
vn -0.2837 -0.2122 -0.9352
vn 0.7554 -0.2122 0.6200
vn -0.0958 -0.2122 0.9725
vn -0.4607 -0.2122 -0.8618
vn 0.8618 -0.2122 0.4607
vn -0.6200 -0.2122 -0.7554
vn 0.9352 -0.2122 0.2837
usemtl Metal
s off
f 1/1/1 2/2/1 4/3/1 3/4/1
f 3/4/2 4/3/2 6/5/2 5/6/2
f 5/6/3 6/5/3 8/7/3 7/8/3
f 7/8/4 8/7/4 10/9/4 9/10/4
f 9/10/5 10/9/5 12/11/5 11/12/5
f 11/12/6 12/11/6 14/13/6 13/14/6
f 13/14/7 14/13/7 16/15/7 15/16/7
f 15/16/8 16/15/8 18/17/8 17/18/8
f 17/18/9 18/17/9 20/19/9 19/20/9
f 19/20/10 20/19/10 22/21/10 21/22/10
f 21/22/11 22/21/11 24/23/11 23/24/11
f 23/24/12 24/23/12 26/25/12 25/26/12
f 25/26/13 26/25/13 28/27/13 27/28/13
f 27/28/14 28/27/14 30/29/14 29/30/14
f 29/30/15 30/29/15 32/31/15 31/32/15
f 31/32/16 32/31/16 34/33/16 33/34/16
f 33/34/17 34/33/17 36/35/17 35/36/17
f 35/36/18 36/35/18 38/37/18 37/38/18
f 37/38/19 38/37/19 40/39/19 39/40/19
f 39/40/20 40/39/20 42/41/20 41/42/20
f 41/42/21 42/41/21 44/43/21 43/44/21
f 43/44/22 44/43/22 46/45/22 45/46/22
f 45/46/23 46/45/23 48/47/23 47/48/23
f 47/48/24 48/47/24 50/49/24 49/50/24
f 49/50/25 50/49/25 52/51/25 51/52/25
f 51/52/26 52/51/26 54/53/26 53/54/26
f 53/54/27 54/53/27 56/55/27 55/56/27
f 55/56/28 56/55/28 58/57/28 57/58/28
f 57/58/29 58/57/29 60/59/29 59/60/29
f 59/60/30 60/59/30 62/61/30 61/62/30
f 4/63/31 2/64/31 64/65/31 62/66/31 60/67/31 58/68/31 56/69/31 54/70/31 52/71/31 50/72/31 48/73/31 46/74/31 44/75/31 42/76/31 40/77/31 38/78/31 36/79/31 34/80/31 32/81/31 30/82/31 28/83/31 26/84/31 24/85/31 22/86/31 20/87/31 18/88/31 16/89/31 14/90/31 12/91/31 10/92/31 8/93/31 6/94/31
f 61/62/32 62/61/32 64/95/32 63/96/32
f 63/96/33 64/95/33 2/2/33 1/1/33
f 1/1/34 3/4/34 5/6/34 7/8/34 9/10/34 11/12/34 13/14/34 15/16/34 17/18/34 19/20/34 21/22/34 23/24/34 25/26/34 27/28/34 29/30/34 31/32/34 33/34/34 35/36/34 37/38/34 39/40/34 41/42/34 43/44/34 45/46/34 47/48/34 49/50/34 51/52/34 53/54/34 55/56/34 57/58/34 59/60/34 61/62/34 63/96/34
usemtl CarbTexture
f 65/97/35 66/98/35 68/99/35 67/100/35
f 67/100/36 68/99/36 70/101/36 69/102/36
f 69/102/37 70/101/37 72/103/37 71/104/37
f 71/104/38 72/103/38 74/105/38 73/106/38
f 73/106/39 74/105/39 76/107/39 75/108/39
f 75/108/40 76/107/40 78/109/40 77/110/40
f 77/110/41 78/109/41 80/111/41 79/112/41
f 79/112/42 80/111/42 82/113/42 81/114/42
f 81/114/43 82/113/43 84/115/43 83/116/43
f 83/116/44 84/115/44 86/117/44 85/118/44
f 85/118/45 86/117/45 88/119/45 87/120/45
f 87/120/46 88/119/46 90/121/46 89/122/46
f 89/122/47 90/121/47 92/123/47 91/124/47
f 91/124/48 92/123/48 94/125/48 93/126/48
f 93/126/49 94/125/49 96/127/49 95/128/49
f 95/128/50 96/127/50 98/129/50 97/130/50
f 97/130/51 98/129/51 100/131/51 99/132/51
f 99/132/52 100/131/52 102/133/52 101/134/52
f 101/134/53 102/133/53 104/135/53 103/136/53
f 103/136/54 104/135/54 106/137/54 105/138/54
f 105/138/55 106/137/55 108/139/55 107/140/55
f 107/140/56 108/139/56 110/141/56 109/142/56
f 109/142/57 110/141/57 112/143/57 111/144/57
f 111/144/58 112/143/58 114/145/58 113/146/58
f 113/146/59 114/145/59 116/147/59 115/148/59
f 115/148/60 116/147/60 118/149/60 117/150/60
f 117/150/61 118/149/61 120/151/61 119/152/61
f 119/152/62 120/151/62 122/153/62 121/154/62
f 121/154/63 122/153/63 124/155/63 123/156/63
f 123/156/64 124/155/64 126/157/64 125/158/64
f 82/113/65 80/111/65 136/159/65 137/160/65
f 125/158/66 126/157/66 128/161/66 127/162/66
f 127/162/67 128/161/67 66/98/67 65/97/67
f 65/97/34 67/100/34 69/102/34 71/104/34 73/106/34 75/108/34 77/110/34 79/112/34 81/114/34 83/116/34 85/118/34 87/120/34 89/122/34 91/124/34 93/126/34 95/128/34 97/130/34 99/132/34 101/134/34 103/136/34 105/138/34 107/140/34 109/142/34 111/144/34 113/146/34 115/148/34 117/150/34 119/152/34 121/154/34 123/156/34 125/158/34 127/162/34
f 150/163/68 149/164/68 181/165/68 182/166/68
f 100/131/69 98/129/69 145/167/69 146/168/69
f 118/149/70 116/147/70 154/169/70 155/170/70
f 74/105/71 72/103/71 132/171/71 133/172/71
f 92/123/72 90/121/72 141/173/72 142/174/72
f 110/141/73 108/139/73 150/163/73 151/175/73
f 128/161/74 126/157/74 159/176/74 160/177/74
f 84/115/75 82/113/75 137/160/75 138/178/75
f 102/133/76 100/131/76 146/168/76 147/179/76
f 120/151/77 118/149/77 155/170/77 156/180/77
f 76/107/78 74/105/78 133/172/78 134/181/78
f 94/125/79 92/123/79 142/174/79 143/182/79
f 112/143/80 110/141/80 151/175/80 152/183/80
f 68/99/81 66/98/81 130/184/81 129/185/81
f 66/98/82 128/161/82 160/177/82 130/184/82
f 86/117/83 84/115/83 138/178/83 139/186/83
f 104/135/84 102/133/84 147/179/84 148/187/84
f 122/153/85 120/151/85 156/180/85 157/188/85
f 78/109/86 76/107/86 134/181/86 135/189/86
f 96/127/87 94/125/87 143/182/87 144/190/87
f 114/145/88 112/143/88 152/183/88 153/191/88
f 70/101/89 68/99/89 129/185/89 131/192/89
f 88/119/90 86/117/90 139/186/90 140/193/90
f 106/137/91 104/135/91 148/187/91 149/164/91
f 124/155/92 122/153/92 157/188/92 158/194/92
f 80/111/93 78/109/93 135/189/93 136/159/93
f 98/129/94 96/127/94 144/190/94 145/167/94
f 116/147/95 114/145/95 153/191/95 154/169/95
f 72/103/96 70/101/96 131/192/96 132/171/96
f 90/121/97 88/119/97 140/193/97 141/173/97
f 108/139/98 106/137/98 149/164/98 150/163/98
f 126/157/99 124/155/99 158/194/99 159/176/99
f 161/195/31 162/196/31 192/197/31 191/198/31 190/199/31 189/200/31 188/201/31 187/202/31 186/203/31 185/204/31 184/205/31 183/206/31 182/207/31 181/208/31 180/209/31 179/210/31 178/211/31 177/212/31 176/213/31 175/214/31 174/215/31 173/216/31 172/217/31 171/218/31 170/219/31 169/220/31 168/221/31 167/222/31 166/223/31 165/224/31 164/225/31 163/226/31
f 137/160/100 136/159/100 168/227/100 169/228/100
f 151/175/101 150/163/101 182/166/101 183/229/101
f 138/178/102 137/160/102 169/228/102 170/230/102
f 152/183/103 151/175/103 183/229/103 184/231/103
f 139/186/104 138/178/104 170/230/104 171/232/104
f 153/191/105 152/183/105 184/231/105 185/233/105
f 140/193/106 139/186/106 171/232/106 172/234/106
f 154/169/107 153/191/107 185/233/107 186/235/107
f 141/173/108 140/193/108 172/234/108 173/236/108
f 155/170/109 154/169/109 186/235/109 187/237/109
f 142/174/110 141/173/110 173/236/110 174/238/110
f 156/180/111 155/170/111 187/237/111 188/239/111
f 143/182/112 142/174/112 174/238/112 175/240/112
f 129/185/113 130/184/113 162/241/113 161/242/113
f 157/188/114 156/180/114 188/239/114 189/243/114
f 144/190/115 143/182/115 175/240/115 176/244/115
f 131/192/116 129/185/116 161/242/116 163/245/116
f 158/194/117 157/188/117 189/243/117 190/246/117
f 145/167/118 144/190/118 176/244/118 177/247/118
f 132/171/119 131/192/119 163/245/119 164/248/119
f 159/176/120 158/194/120 190/246/120 191/249/120
f 146/168/121 145/167/121 177/247/121 178/250/121
f 133/172/122 132/171/122 164/248/122 165/251/122
f 160/177/123 159/176/123 191/249/123 192/252/123
f 147/179/124 146/168/124 178/250/124 179/253/124
f 134/181/125 133/172/125 165/251/125 166/254/125
f 130/184/126 160/177/126 192/252/126 162/241/126
f 148/187/127 147/179/127 179/253/127 180/255/127
f 135/189/128 134/181/128 166/254/128 167/256/128
f 149/164/129 148/187/129 180/255/129 181/165/129
f 136/159/130 135/189/130 167/256/130 168/227/130
