# Blender v2.91.0 OBJ File: 'Cessna152forp5.blend'
# www.blender.org
mtllib planeYokeButton.mtl
o Cylinder.075_Cylinder.065
v -22.717257 -63.417202 14.441139
v -22.673750 -63.183216 13.759741
v -22.637791 -63.410595 14.448053
v -22.594284 -63.176605 13.766659
v -22.561491 -63.389313 14.459517
v -22.517975 -63.155323 13.778122
v -22.491287 -63.354168 14.475090
v -22.447775 -63.120174 13.793694
v -22.429873 -63.306503 14.494175
v -22.386366 -63.072517 13.812777
v -22.379620 -63.248165 14.516031
v -22.336113 -63.014183 13.834635
v -22.342453 -63.181393 14.539825
v -22.298948 -62.947403 13.858429
v -22.319803 -63.108749 14.564640
v -22.276289 -62.874756 13.883245
v -22.312531 -63.033016 14.589527
v -22.269026 -62.799034 13.908129
v -22.320934 -62.957127 14.613522
v -22.277420 -62.723133 13.932127
v -22.344671 -62.883976 14.635708
v -22.301165 -62.649986 13.954311
v -22.382839 -62.816387 14.655231
v -22.339333 -62.582397 13.973835
v -22.433971 -62.756947 14.671345
v -22.390463 -62.522961 13.989944
v -22.496105 -62.707954 14.683420
v -22.452593 -62.473961 14.002024
v -22.566845 -62.671280 14.691000
v -22.523329 -62.437290 14.009605
v -22.643475 -62.648342 14.693792
v -22.599968 -62.414352 14.012398
v -22.723051 -62.640015 14.691694
v -22.679544 -62.406025 14.010296
v -22.802521 -62.646622 14.684776
v -22.759008 -62.412632 14.003380
v -22.878824 -62.667904 14.673313
v -22.835316 -62.433914 13.991917
v -22.949026 -62.703053 14.657742
v -22.905519 -62.469059 13.976343
v -23.010433 -62.750710 14.638660
v -22.966927 -62.516724 13.957260
v -23.060692 -62.809052 14.616800
v -23.017179 -62.575062 13.935402
v -23.097860 -62.875824 14.593004
v -23.054346 -62.641834 13.911608
v -23.120510 -62.948475 14.568188
v -23.077002 -62.714478 13.886793
v -23.127775 -63.024200 14.543304
v -23.084269 -62.790211 13.861906
v -23.119379 -63.100098 14.519306
v -23.075871 -62.866100 13.837912
v -23.095642 -63.173241 14.497122
v -23.052130 -62.939251 13.815725
v -23.057472 -63.240829 14.477600
v -23.013960 -63.006847 13.796202
v -23.006336 -63.300266 14.461491
v -22.962830 -63.066280 13.780092
v -22.944208 -63.349266 14.449411
v -22.900702 -63.115273 13.768013
v -22.873470 -63.385937 14.441830
v -22.829956 -63.151947 13.760433
v -22.796837 -63.408875 14.439037
v -22.753325 -63.174885 13.757641
v -22.721031 -63.381050 14.514620
v -22.652655 -63.375359 14.520569
v -22.587004 -63.357048 14.530434
v -22.526598 -63.326805 14.543835
v -22.473759 -63.285797 14.560251
v -22.430517 -63.235603 14.579058
v -22.398537 -63.178146 14.599533
v -22.379049 -63.115639 14.620886
v -22.372795 -63.050476 14.642298
v -22.380022 -62.985176 14.662945
v -22.400446 -62.922234 14.682035
v -22.433287 -62.864082 14.698832
v -22.477285 -62.812943 14.712694
v -22.530743 -62.770790 14.723085
v -22.591610 -62.739235 14.729607
v -22.657545 -62.719490 14.732010
v -22.726017 -62.712326 14.730206
v -22.794392 -62.718010 14.724253
v -22.860044 -62.736328 14.714388
v -22.920450 -62.766571 14.700989
v -22.973289 -62.807571 14.684570
v -23.016531 -62.857765 14.665764
v -23.048512 -62.915222 14.645290
v -23.068003 -62.977730 14.623938
v -23.074251 -63.042892 14.602526
v -23.067030 -63.108192 14.581879
v -23.046602 -63.171135 14.562788
v -23.013760 -63.229294 14.545990
v -22.969763 -63.280434 14.532127
v -22.916304 -63.322586 14.521738
v -22.855438 -63.354141 14.515215
v -22.789501 -63.373878 14.512812
vt 1.000000 0.500000
vt 1.000000 1.000000
vt 0.968750 1.000000
vt 0.968750 0.500000
vt 0.937500 1.000000
vt 0.937500 0.500000
vt 0.906250 1.000000
vt 0.906250 0.500000
vt 0.875000 1.000000
vt 0.875000 0.500000
vt 0.843750 1.000000
vt 0.843750 0.500000
vt 0.812500 1.000000
vt 0.812500 0.500000
vt 0.781250 1.000000
vt 0.781250 0.500000
vt 0.750000 1.000000
vt 0.750000 0.500000
vt 0.718750 1.000000
vt 0.718750 0.500000
vt 0.687500 1.000000
vt 0.687500 0.500000
vt 0.656250 1.000000
vt 0.656250 0.500000
vt 0.625000 1.000000
vt 0.625000 0.500000
vt 0.593750 1.000000
vt 0.593750 0.500000
vt 0.562500 1.000000
vt 0.562500 0.500000
vt 0.531250 1.000000
vt 0.531250 0.500000
vt 0.500000 1.000000
vt 0.500000 0.500000
vt 0.468750 1.000000
vt 0.468750 0.500000
vt 0.437500 1.000000
vt 0.437500 0.500000
vt 0.406250 1.000000
vt 0.406250 0.500000
vt 0.375000 1.000000
vt 0.375000 0.500000
vt 0.343750 1.000000
vt 0.343750 0.500000
vt 0.312500 1.000000
vt 0.312500 0.500000
vt 0.281250 1.000000
vt 0.281250 0.500000
vt 0.250000 1.000000
vt 0.250000 0.500000
vt 0.218750 1.000000
vt 0.218750 0.500000
vt 0.187500 1.000000
vt 0.187500 0.500000
vt 0.156250 1.000000
vt 0.156250 0.500000
vt 0.125000 1.000000
vt 0.125000 0.500000
vt 0.093750 1.000000
vt 0.093750 0.500000
vt 0.062500 1.000000
vt 0.062500 0.500000
vt 0.296822 0.485388
vt 0.250000 0.490000
vt 0.203179 0.485389
vt 0.158156 0.471731
vt 0.116663 0.449553
vt 0.080295 0.419706
vt 0.050447 0.383337
vt 0.028269 0.341844
vt 0.014612 0.296822
vt 0.010000 0.250000
vt 0.014611 0.203179
vt 0.028269 0.158156
vt 0.050447 0.116663
vt 0.080294 0.080294
vt 0.116663 0.050447
vt 0.158156 0.028269
vt 0.203178 0.014612
vt 0.250000 0.010000
vt 0.296822 0.014612
vt 0.341844 0.028269
vt 0.383337 0.050447
vt 0.419706 0.080294
vt 0.449553 0.116663
vt 0.471731 0.158156
vt 0.485388 0.203178
vt 0.490000 0.250000
vt 0.485388 0.296822
vt 0.471731 0.341844
vt 0.449553 0.383337
vt 0.419706 0.419706
vt 0.383337 0.449553
vt 0.341844 0.471731
vt 0.031250 1.000000
vt 0.031250 0.500000
vt 0.000000 1.000000
vt 0.000000 0.500000
vt 0.781250 0.500000
vt 0.812500 0.500000
vt 0.750000 0.490000
vt 0.796822 0.485388
vt 0.841844 0.471731
vt 0.883337 0.449553
vt 0.919706 0.419706
vt 0.949553 0.383337
vt 0.971731 0.341844
vt 0.985388 0.296822
vt 0.990000 0.250000
vt 0.985388 0.203178
vt 0.971731 0.158156
vt 0.949553 0.116663
vt 0.919706 0.080294
vt 0.883337 0.050447
vt 0.841844 0.028269
vt 0.796822 0.014612
vt 0.750000 0.010000
vt 0.703178 0.014612
vt 0.658156 0.028269
vt 0.616663 0.050447
vt 0.580294 0.080294
vt 0.550447 0.116663
vt 0.528269 0.158156
vt 0.514611 0.203179
vt 0.510000 0.250000
vt 0.514612 0.296822
vt 0.528269 0.341844
vt 0.550447 0.383337
vt 0.580295 0.419706
vt 0.616663 0.449553
vt 0.658156 0.471731
vt 0.703179 0.485389
vt 0.500000 0.500000
vt 0.531250 0.500000
vt 0.218750 0.500000
vt 0.250000 0.500000
vt 0.906250 0.500000
vt 0.937500 0.500000
vt 0.625000 0.500000
vt 0.656250 0.500000
vt 0.343750 0.500000
vt 0.375000 0.500000
vt 0.062500 0.500000
vt 0.093750 0.500000
vt 0.750000 0.500000
vt 0.468750 0.500000
vt 0.187500 0.500000
vt 0.875000 0.500000
vt 0.593750 0.500000
vt 0.312500 0.500000
vt 0.031250 0.500000
vt 0.718750 0.500000
vt 0.437500 0.500000
vt 0.156250 0.500000
vt 0.843750 0.500000
vt 0.562500 0.500000
vt 0.281250 0.500000
vt 0.968750 0.500000
vt 1.000000 0.500000
vt 0.000000 0.500000
vt 0.687500 0.500000
vt 0.406250 0.500000
vt 0.125000 0.500000
vn 0.1060 -0.9425 -0.3169
vn 0.2975 -0.9086 -0.2930
vn 0.4777 -0.8398 -0.2579
vn 0.6395 -0.7388 -0.2129
vn 0.7767 -0.6093 -0.1596
vn 0.8841 -0.4564 -0.1003
vn 0.9575 -0.2860 -0.0371
vn 0.9941 -0.1045 0.0276
vn 0.9925 0.0810 0.0912
vn 0.9528 0.2634 0.1513
vn 0.8764 0.4355 0.2055
vn 0.7664 0.5910 0.2519
vn 0.6268 0.7238 0.2886
vn 0.4633 0.8287 0.3141
vn 0.2818 0.9018 0.3277
vn 0.0897 0.9402 0.3286
vn -0.1059 0.9425 0.3169
vn -0.2975 0.9087 0.2930
vn -0.4777 0.8398 0.2579
vn -0.6395 0.7387 0.2129
vn -0.7767 0.6093 0.1596
vn -0.8841 0.4564 0.1003
vn -0.9575 0.2859 0.0370
vn -0.9941 0.1045 -0.0276
vn -0.9925 -0.0810 -0.0912
vn -0.9528 -0.2633 -0.1513
vn -0.8764 -0.4355 -0.2055
vn -0.7663 -0.5910 -0.2519
vn -0.6269 -0.7237 -0.2885
vn -0.4632 -0.8287 -0.3141
vn 0.0572 0.3067 -0.9501
vn -0.2819 -0.9018 -0.3277
vn -0.0897 -0.9402 -0.3286
vn 0.6503 -0.4192 0.6336
vn -0.0572 -0.3067 0.9501
vn 0.0258 0.4691 0.8828
vn -0.7551 -0.2721 0.5965
vn 0.3040 -0.8212 0.4830
vn 0.5132 0.2164 0.8305
vn -0.5990 0.2284 0.7675
vn -0.3742 -0.8138 0.4446
vn 0.6768 -0.2877 0.6777
vn -0.1153 0.4706 0.8748
vn -0.7266 -0.4043 0.5556
vn 0.4207 -0.7477 0.5137
vn 0.4127 0.3126 0.8555
vn -0.6765 0.1175 0.7270
vn -0.2436 -0.8667 0.4353
vn 0.6758 -0.1531 0.7210
vn -0.2534 0.4458 0.8585
vn -0.6717 -0.5291 0.5186
vn 0.5197 -0.6538 0.5500
vn 0.2949 0.3885 0.8730
vn -0.7295 -0.0061 0.6839
vn 0.0360 -0.8960 0.4426
vn -0.1051 -0.8944 0.4347
vn 0.6473 -0.0211 0.7619
vn -0.3833 0.3958 0.8345
vn -0.5925 -0.6417 0.4869
vn 0.5972 -0.5428 0.5905
vn 0.1643 0.4414 0.8822
vn -0.7561 -0.1377 0.6398
vn 0.1740 -0.8712 0.4590
vn 0.5924 0.1038 0.7989
vn -0.5000 0.3224 0.8038
vn -0.4921 -0.7378 0.4620
usemtl YokeButton
s off
f 1/1/1 2/2/1 4/3/1 3/4/1
f 3/4/2 4/3/2 6/5/2 5/6/2
f 5/6/3 6/5/3 8/7/3 7/8/3
f 7/8/4 8/7/4 10/9/4 9/10/4
f 9/10/5 10/9/5 12/11/5 11/12/5
f 11/12/6 12/11/6 14/13/6 13/14/6
f 13/14/7 14/13/7 16/15/7 15/16/7
f 15/16/8 16/15/8 18/17/8 17/18/8
f 17/18/9 18/17/9 20/19/9 19/20/9
f 19/20/10 20/19/10 22/21/10 21/22/10
f 21/22/11 22/21/11 24/23/11 23/24/11
f 23/24/12 24/23/12 26/25/12 25/26/12
f 25/26/13 26/25/13 28/27/13 27/28/13
f 27/28/14 28/27/14 30/29/14 29/30/14
f 29/30/15 30/29/15 32/31/15 31/32/15
f 31/32/16 32/31/16 34/33/16 33/34/16
f 33/34/17 34/33/17 36/35/17 35/36/17
f 35/36/18 36/35/18 38/37/18 37/38/18
f 37/38/19 38/37/19 40/39/19 39/40/19
f 39/40/20 40/39/20 42/41/20 41/42/20
f 41/42/21 42/41/21 44/43/21 43/44/21
f 43/44/22 44/43/22 46/45/22 45/46/22
f 45/46/23 46/45/23 48/47/23 47/48/23
f 47/48/24 48/47/24 50/49/24 49/50/24
f 49/50/25 50/49/25 52/51/25 51/52/25
f 51/52/26 52/51/26 54/53/26 53/54/26
f 53/54/27 54/53/27 56/55/27 55/56/27
f 55/56/28 56/55/28 58/57/28 57/58/28
f 57/58/29 58/57/29 60/59/29 59/60/29
f 59/60/30 60/59/30 62/61/30 61/62/30
f 4/63/31 2/64/31 64/65/31 62/66/31 60/67/31 58/68/31 56/69/31 54/70/31 52/71/31 50/72/31 48/73/31 46/74/31 44/75/31 42/76/31 40/77/31 38/78/31 36/79/31 34/80/31 32/81/31 30/82/31 28/83/31 26/84/31 24/85/31 22/86/31 20/87/31 18/88/31 16/89/31 14/90/31 12/91/31 10/92/31 8/93/31 6/94/31
f 61/62/32 62/61/32 64/95/32 63/96/32
f 63/96/33 64/95/33 2/97/33 1/98/33
f 13/14/34 15/16/34 72/99/34 71/100/34
f 65/101/35 66/102/35 67/103/35 68/104/35 69/105/35 70/106/35 71/107/35 72/108/35 73/109/35 74/110/35 75/111/35 76/112/35 77/113/35 78/114/35 79/115/35 80/116/35 81/117/35 82/118/35 83/119/35 84/120/35 85/121/35 86/122/35 87/123/35 88/124/35 89/125/35 90/126/35 91/127/35 92/128/35 93/129/35 94/130/35 95/131/35 96/132/35
f 31/32/36 33/34/36 81/133/36 80/134/36
f 49/50/37 51/52/37 90/135/37 89/136/37
f 5/6/38 7/8/38 68/137/38 67/138/38
f 23/24/39 25/26/39 77/139/39 76/140/39
f 41/42/40 43/44/40 86/141/40 85/142/40
f 59/60/41 61/62/41 95/143/41 94/144/41
f 15/16/42 17/18/42 73/145/42 72/99/42
f 33/34/43 35/36/43 82/146/43 81/133/43
f 51/52/44 53/54/44 91/147/44 90/135/44
f 7/8/45 9/10/45 69/148/45 68/137/45
f 25/26/46 27/28/46 78/149/46 77/139/46
f 43/44/47 45/46/47 87/150/47 86/141/47
f 61/62/48 63/96/48 96/151/48 95/143/48
f 17/18/49 19/20/49 74/152/49 73/145/49
f 35/36/50 37/38/50 83/153/50 82/146/50
f 53/54/51 55/56/51 92/154/51 91/147/51
f 9/10/52 11/12/52 70/155/52 69/148/52
f 27/28/53 29/30/53 79/156/53 78/149/53
f 45/46/54 47/48/54 88/157/54 87/150/54
f 1/1/55 3/4/55 66/158/55 65/159/55
f 63/96/56 1/98/56 65/160/56 96/151/56
f 19/20/57 21/22/57 75/161/57 74/152/57
f 37/38/58 39/40/58 84/162/58 83/153/58
f 55/56/59 57/58/59 93/163/59 92/154/59
f 11/12/60 13/14/60 71/100/60 70/155/60
f 29/30/61 31/32/61 80/134/61 79/156/61
f 47/48/62 49/50/62 89/136/62 88/157/62
f 3/4/63 5/6/63 67/138/63 66/158/63
f 21/22/64 23/24/64 76/140/64 75/161/64
f 39/40/65 41/42/65 85/142/65 84/162/65
f 57/58/66 59/60/66 94/144/66 93/163/66
