# Blender v2.91.0 OBJ File: 'Cessna152forp5.blend'
# www.blender.org
mtllib planeAileron.mtl
o Cube.033_Cube.030
v -260.342560 -34.493305 -0.905573
v -267.657471 0.029457 -3.523045
v -260.342560 -34.493305 0.905561
v 265.376160 -35.231087 -0.905573
v 267.657593 -0.029449 -3.523045
v 265.376160 -35.231087 0.905561
v 267.657593 -0.029449 3.523075
v -267.657471 0.029457 3.523075
vt 0.375000 0.000000
vt 0.625000 0.000000
vt 0.625000 0.250000
vt 0.375000 0.250000
vt 0.125000 0.500000
vt 0.375000 0.500000
vt 0.375000 0.750000
vt 0.125000 0.750000
vt 0.625000 0.750000
vt 0.625000 1.000000
vt 0.375000 1.000000
vt 0.625000 0.500000
vt 0.875000 0.500000
vt 0.875000 0.750000
vn -0.9783 -0.2073 0.0000
vn -0.0001 -0.0749 -0.9972
vn -0.0014 -1.0000 0.0000
vn 0.9979 -0.0647 0.0000
vn -0.0001 -0.0749 0.9972
vn 0.0001 1.0000 0.0000
usemtl None
s off
f 1/1/1 3/2/1 8/3/1 2/4/1
f 2/5/2 5/6/2 4/7/2 1/8/2
f 4/7/3 6/9/3 3/10/3 1/11/3
f 5/6/4 7/12/4 6/9/4 4/7/4
f 7/12/5 8/13/5 3/14/5 6/9/5
f 2/4/6 8/3/6 7/12/6 5/6/6
