# Blender v2.91.0 OBJ File: 'Cessna152forp5.blend'
# www.blender.org
mtllib planeHubcaps.mtl
o Cylinder.072_Cylinder.062
v 19.458164 42.320168 0.000051
v 19.458164 41.506992 -8.256197
v -19.458237 42.320168 0.000054
v 19.458164 41.507008 8.256237
v 19.458162 39.098759 16.195210
v -19.458237 41.507008 8.256239
v -19.458239 39.098759 16.195211
v -14.798481 34.008953 6.764796
v -14.798481 32.035744 13.269627
v -14.798480 34.675217 0.000054
v -6.807335 26.544106 5.279957
v -6.807335 25.004011 10.356999
v -6.807334 27.064127 0.000054
v -6.807334 13.967249 2.778284
v -6.807335 13.156867 5.449772
v -6.807334 14.240879 0.000054
v -14.000316 11.151022 2.218107
v -14.000316 10.504039 4.350939
v -14.000316 11.369481 0.000054
v -14.000316 11.151019 -2.218016
v -14.000316 10.504033 -4.350847
v -6.807334 13.967245 -2.778198
v -6.807334 13.156859 -5.449684
v -6.807334 26.544098 -5.279890
v -6.807333 25.003996 -10.356929
v -14.798479 34.008942 -6.764738
v -14.798479 32.035725 -13.269566
v -19.458237 41.506992 -8.256194
v -19.458235 39.098736 -16.195162
v 19.458166 39.098736 -16.195162
v -19.458235 35.187935 -23.511753
v 19.458166 35.187935 -23.511753
v -19.458235 29.924883 -29.924799
v -14.798478 28.831392 -19.264448
v -14.798478 24.519089 -24.519005
v -6.807333 22.503004 -15.035954
v -6.807333 19.137239 -19.137154
v -6.807334 11.840862 -7.911739
v -6.807333 10.069833 -10.069749
v -14.000315 9.453382 -6.316475
v -14.000315 8.039447 -8.039363
v -14.000315 6.316558 -9.453299
v -14.000315 4.350931 -10.503949
v -6.807333 7.911821 -11.840779
v -6.807333 5.449767 -13.156775
v -6.807333 15.036036 -22.502922
v -6.807333 10.357012 -25.003912
v -14.798478 19.264530 -28.831310
v -14.798477 13.269650 -32.035637
v -19.458235 23.511833 -35.187851
v 19.458166 23.511833 -35.187859
v -19.458233 16.195244 -39.098648
v 19.458168 16.195244 -39.098656
v -19.458233 8.256280 -41.506908
v 19.458168 8.256280 -41.506912
v -19.458233 0.000033 -42.320080
v -14.798477 6.764824 -34.008858
v -14.798477 0.000033 -34.675129
v -6.807333 5.279974 -26.544016
v -6.807333 0.000032 -27.064043
v -6.807333 2.778282 -13.967161
v -6.807333 0.000031 -14.240796
v -14.000315 2.218100 -11.150935
v -14.000315 0.000031 -11.369396
v -14.000315 -2.218038 -11.150937
v -14.000315 -4.350868 -10.503950
v -6.807333 -2.778220 -13.967164
v -6.807333 -5.449705 -13.156776
v -6.807333 -5.279910 -26.544018
v -6.807333 -10.356948 -25.003914
v -14.798477 -6.764759 -34.008858
v -14.798477 -13.269584 -32.035641
v -19.458233 -8.256213 -41.506912
v 19.458168 -8.256213 -41.506916
v -19.458233 -16.195177 -39.098652
v 19.458168 -16.195177 -39.098656
v -19.458235 -23.511774 -35.187851
v 19.458166 -23.511774 -35.187859
v -19.458235 -29.924822 -29.924799
v -14.798478 -19.264469 -28.831310
v -14.798478 -24.519030 -24.519005
v -6.807333 -15.035975 -22.502922
v -6.807333 -19.137178 -19.137154
v -6.807333 -7.911761 -11.840779
v -6.807333 -10.069772 -10.069749
v -14.000315 -6.316497 -9.453299
v -14.000315 -8.039386 -8.039363
v -14.000315 -9.453322 -6.316474
v -14.000316 -10.503973 -4.350845
v -6.807334 -11.840802 -7.911737
v -6.807334 -13.156799 -5.449681
v -6.807333 -22.502945 -15.035953
v -6.807333 -25.003937 -10.356924
v -14.798478 -28.831333 -19.264446
v -14.798479 -32.035667 -13.269559
v -19.458235 -35.187878 -23.511751
v 19.458166 -35.187878 -23.511751
v -19.458235 -39.098679 -16.195154
v 19.458166 -39.098679 -16.195154
v -19.458237 -41.506935 -8.256185
v 19.458164 -41.506935 -8.256186
v -19.458237 -42.320103 0.000068
v -14.798479 -34.008884 -6.764730
v -14.798480 -34.675156 0.000065
v -6.807334 -26.544041 -5.279883
v -6.807334 -27.064066 0.000063
v -6.807334 -13.967187 -2.778195
v -6.807334 -14.240819 0.000058
v -14.000316 -11.150962 -2.218014
v -14.000316 -11.369421 0.000057
v -14.000316 -11.150958 2.218128
v -14.000316 -10.503971 4.350959
v -6.807334 -13.967183 2.778311
v -6.807335 -13.156796 5.449797
v -6.807335 -26.544035 5.280009
v -6.807335 -25.003929 10.357048
v -14.798481 -34.008881 6.764862
v -14.798481 -32.035656 13.269689
v -19.458237 -41.506931 8.256320
v 19.458164 -41.506931 8.256317
v -19.458239 -39.098667 16.195286
v 19.458162 -39.098667 16.195286
v -19.458239 -35.187862 23.511881
v 19.458162 -35.187862 23.511879
v -19.458239 -29.924805 29.924927
v -14.798482 -28.831322 19.264572
v -14.798482 -24.519014 24.519127
v -6.807335 -22.502934 15.036073
v -6.807336 -19.137165 19.137274
v -6.807335 -11.840797 7.911852
v -6.807335 -10.069764 10.069860
v -14.000317 -9.453319 6.316587
v -14.000317 -8.039380 8.039474
v -14.000317 -6.316491 9.453411
v -14.000317 -4.350862 10.504061
v -6.807335 -7.911753 11.840892
v -6.807335 -5.449696 13.156887
v -6.807336 -15.035962 22.503038
v -6.807336 -10.356932 25.004028
v -14.798482 -19.264452 28.831430
v -14.798483 -13.269562 32.035763
v -19.458239 -23.511751 35.187977
v 19.458162 -23.511751 35.187973
v -19.458241 -16.195152 39.098774
v 19.458160 -16.195152 39.098770
v -19.458241 -8.256182 41.507027
v 19.458160 -8.256182 41.507023
v -19.458241 0.000071 42.320187
v -14.798483 -6.764733 34.008972
v -14.798483 0.000064 34.675243
v -6.807336 -5.279890 26.544127
v -6.807336 0.000056 27.064150
v -6.807335 -2.778209 13.967271
v -6.807335 0.000044 14.240903
v -14.000317 -2.218030 11.151047
v -14.000317 0.000041 11.369506
v -14.000317 2.218112 11.151041
v -14.000317 4.350943 10.504052
v -6.807335 2.778296 13.967265
v -6.807335 5.449782 13.156877
v -6.807336 5.280002 26.544115
v -6.807336 10.357041 25.004007
v -14.798483 6.764859 34.008961
v -14.798483 13.269686 32.035736
v -19.458241 8.256322 41.507011
v 19.458160 8.256322 41.507008
v -19.458241 16.195288 39.098743
v 19.458160 16.195288 39.098736
v -19.458239 23.511879 35.187931
v 19.458162 23.511879 35.187927
v -19.458239 29.924921 29.924870
v -14.798482 19.264566 28.831392
v -14.798482 24.519119 24.519079
v -6.807336 15.036065 22.503008
v -6.807336 19.137262 19.137236
v -6.807335 7.911837 11.840876
v -6.807335 10.069844 10.069841
v -14.000317 6.316570 9.453398
v -14.000317 8.039455 8.039459
v -14.000317 9.453391 6.316569
v -6.807335 11.840874 7.911830
v -6.807335 22.503025 15.036030
v -14.798482 28.831419 19.264517
v -19.458239 35.187969 23.511812
v 19.458162 35.187969 23.511810
v 19.458162 29.924921 29.924868
v 19.458160 0.000071 42.320183
v 19.458162 -29.924805 29.924925
v 19.458164 -42.320103 0.000065
v 19.458166 -29.924822 -29.924801
v 19.458168 0.000033 -42.320084
v 19.458166 29.924883 -29.924801
vt 0.750000 0.490000
vt 0.703179 0.485389
vt 0.658156 0.471731
vt 0.616663 0.449553
vt 0.580295 0.419706
vt 0.550447 0.383337
vt 0.528269 0.341844
vt 0.514612 0.296822
vt 0.510000 0.250000
vt 0.514611 0.203179
vt 0.528269 0.158156
vt 0.550447 0.116663
vt 0.580294 0.080294
vt 0.616663 0.050447
vt 0.658156 0.028269
vt 0.703178 0.014612
vt 0.750000 0.010000
vt 0.796822 0.014612
vt 0.841844 0.028269
vt 0.883337 0.050447
vt 0.919706 0.080294
vt 0.949553 0.116663
vt 0.971731 0.158156
vt 0.985388 0.203178
vt 0.990000 0.250000
vt 0.985388 0.296822
vt 0.971731 0.341844
vt 0.949553 0.383337
vt 0.919706 0.419706
vt 0.883337 0.449553
vt 0.841844 0.471731
vt 0.796822 0.485388
vt 1.000000 0.500000
vt 0.968750 0.500000
vt 0.968750 1.000000
vt 1.000000 1.000000
vt 0.031250 0.500000
vt 0.000000 0.500000
vt 0.000000 1.000000
vt 0.031250 1.000000
vt 0.062500 0.500000
vt 0.062500 1.000000
vt 0.031250 1.000000
vt 0.062500 1.000000
vt 0.000000 1.000000
vt 0.031250 1.000000
vt 0.062500 1.000000
vt 0.000000 1.000000
vt 0.031250 1.000000
vt 0.062500 1.000000
vt 0.000000 1.000000
vt 0.031250 1.000000
vt 0.062500 1.000000
vt 0.000000 1.000000
vt 0.296822 0.485388
vt 0.341844 0.471731
vt 0.383337 0.449553
vt 0.419706 0.419706
vt 0.449553 0.383337
vt 0.471731 0.341844
vt 0.485388 0.296822
vt 0.490000 0.250000
vt 0.485388 0.203178
vt 0.471731 0.158156
vt 0.449553 0.116663
vt 0.419706 0.080294
vt 0.383337 0.050447
vt 0.341844 0.028269
vt 0.296822 0.014612
vt 0.250000 0.010000
vt 0.203178 0.014612
vt 0.158156 0.028269
vt 0.116663 0.050447
vt 0.080294 0.080294
vt 0.050447 0.116663
vt 0.028269 0.158156
vt 0.014611 0.203179
vt 0.010000 0.250000
vt 0.014612 0.296822
vt 0.028269 0.341844
vt 0.050447 0.383337
vt 0.080295 0.419706
vt 0.116663 0.449553
vt 0.158156 0.471731
vt 0.203179 0.485389
vt 0.250000 0.490000
vt 0.968750 1.000000
vt 0.968750 1.000000
vt 1.000000 1.000000
vt 1.000000 1.000000
vt 0.937500 1.000000
vt 0.937500 1.000000
vt 0.968750 1.000000
vt 1.000000 1.000000
vt 0.937500 1.000000
vt 0.968750 1.000000
vt 1.000000 1.000000
vt 0.937500 1.000000
vt 0.937500 1.000000
vt 0.937500 0.500000
vt 0.906250 0.500000
vt 0.906250 1.000000
vt 0.906250 1.000000
vt 0.875000 0.500000
vt 0.875000 1.000000
vt 0.875000 1.000000
vt 0.906250 1.000000
vt 0.875000 1.000000
vt 0.906250 1.000000
vt 0.875000 1.000000
vt 0.906250 1.000000
vt 0.875000 1.000000
vt 0.843750 1.000000
vt 0.843750 1.000000
vt 0.812500 1.000000
vt 0.812500 1.000000
vt 0.843750 1.000000
vt 0.812500 1.000000
vt 0.843750 1.000000
vt 0.812500 1.000000
vt 0.843750 1.000000
vt 0.812500 1.000000
vt 0.843750 0.500000
vt 0.812500 0.500000
vt 0.781250 0.500000
vt 0.781250 1.000000
vt 0.781250 1.000000
vt 0.750000 0.500000
vt 0.750000 1.000000
vt 0.750000 1.000000
vt 0.781250 1.000000
vt 0.750000 1.000000
vt 0.781250 1.000000
vt 0.750000 1.000000
vt 0.781250 1.000000
vt 0.750000 1.000000
vt 0.718750 1.000000
vt 0.718750 1.000000
vt 0.687500 1.000000
vt 0.687500 1.000000
vt 0.718750 1.000000
vt 0.687500 1.000000
vt 0.718750 1.000000
vt 0.687500 1.000000
vt 0.718750 1.000000
vt 0.687500 1.000000
vt 0.718750 0.500000
vt 0.687500 0.500000
vt 0.656250 0.500000
vt 0.656250 1.000000
vt 0.656250 1.000000
vt 0.625000 0.500000
vt 0.625000 1.000000
vt 0.625000 1.000000
vt 0.656250 1.000000
vt 0.625000 1.000000
vt 0.656250 1.000000
vt 0.625000 1.000000
vt 0.656250 1.000000
vt 0.625000 1.000000
vt 0.593750 1.000000
vt 0.593750 1.000000
vt 0.562500 1.000000
vt 0.562500 1.000000
vt 0.593750 1.000000
vt 0.562500 1.000000
vt 0.593750 1.000000
vt 0.562500 1.000000
vt 0.593750 1.000000
vt 0.562500 1.000000
vt 0.593750 0.500000
vt 0.562500 0.500000
vt 0.531250 0.500000
vt 0.531250 1.000000
vt 0.531250 1.000000
vt 0.500000 0.500000
vt 0.500000 1.000000
vt 0.500000 1.000000
vt 0.531250 1.000000
vt 0.500000 1.000000
vt 0.531250 1.000000
vt 0.500000 1.000000
vt 0.531250 1.000000
vt 0.500000 1.000000
vt 0.468750 1.000000
vt 0.468750 1.000000
vt 0.437500 1.000000
vt 0.437500 1.000000
vt 0.468750 1.000000
vt 0.437500 1.000000
vt 0.468750 1.000000
vt 0.437500 1.000000
vt 0.468750 1.000000
vt 0.437500 1.000000
vt 0.468750 0.500000
vt 0.437500 0.500000
vt 0.406250 0.500000
vt 0.406250 1.000000
vt 0.406250 1.000000
vt 0.375000 0.500000
vt 0.375000 1.000000
vt 0.375000 1.000000
vt 0.406250 1.000000
vt 0.375000 1.000000
vt 0.406250 1.000000
vt 0.375000 1.000000
vt 0.406250 1.000000
vt 0.375000 1.000000
vt 0.343750 1.000000
vt 0.343750 1.000000
vt 0.312500 1.000000
vt 0.312500 1.000000
vt 0.343750 1.000000
vt 0.312500 1.000000
vt 0.343750 1.000000
vt 0.312500 1.000000
vt 0.343750 1.000000
vt 0.312500 1.000000
vt 0.343750 0.500000
vt 0.312500 0.500000
vt 0.281250 0.500000
vt 0.281250 1.000000
vt 0.281250 1.000000
vt 0.250000 0.500000
vt 0.250000 1.000000
vt 0.250000 1.000000
vt 0.281250 1.000000
vt 0.250000 1.000000
vt 0.281250 1.000000
vt 0.250000 1.000000
vt 0.281250 1.000000
vt 0.250000 1.000000
vt 0.218750 1.000000
vt 0.218750 1.000000
vt 0.187500 1.000000
vt 0.187500 1.000000
vt 0.218750 1.000000
vt 0.187500 1.000000
vt 0.218750 1.000000
vt 0.187500 1.000000
vt 0.218750 1.000000
vt 0.187500 1.000000
vt 0.218750 0.500000
vt 0.187500 0.500000
vt 0.156250 0.500000
vt 0.156250 1.000000
vt 0.156250 1.000000
vt 0.125000 0.500000
vt 0.125000 1.000000
vt 0.125000 1.000000
vt 0.156250 1.000000
vt 0.125000 1.000000
vt 0.156250 1.000000
vt 0.125000 1.000000
vt 0.156250 1.000000
vt 0.125000 1.000000
vt 0.093750 1.000000
vt 0.093750 1.000000
vt 0.093750 1.000000
vt 0.093750 1.000000
vt 0.093750 1.000000
vt 0.093750 0.500000
vn 1.0000 -0.0000 0.0000
vn -0.0000 0.9952 -0.0980
vn 0.0000 0.9952 0.0980
vn 0.0000 0.9569 0.2903
vn -0.8528 -0.4998 -0.1516
vn -0.8528 -0.5198 -0.0512
vn -0.6879 -0.6945 -0.2107
vn -0.6879 -0.7223 -0.0711
vn -1.0000 -0.0000 -0.0000
vn -0.3692 0.8893 0.2698
vn -0.3692 0.9249 0.0911
vn -0.3692 0.9249 -0.0911
vn -0.3692 0.8893 -0.2698
vn -0.6879 -0.7223 0.0711
vn -0.6879 -0.6945 0.2107
vn -0.8528 -0.5198 0.0512
vn -0.8528 -0.4998 0.1516
vn -0.0000 0.9569 -0.2903
vn 0.0000 0.8819 -0.4714
vn -0.8528 -0.4606 0.2462
vn 0.0000 0.7730 -0.6344
vn -0.8528 -0.4037 0.3313
vn -0.6879 -0.6401 0.3421
vn -0.6879 -0.5610 0.4604
vn -0.3692 0.8196 -0.4381
vn -0.3692 0.7184 -0.5896
vn -0.3692 0.5896 -0.7184
vn -0.3692 0.4381 -0.8196
vn -0.6879 -0.4604 0.5610
vn -0.6879 -0.3421 0.6401
vn -0.8528 -0.3313 0.4037
vn -0.8528 -0.2462 0.4606
vn -0.0000 0.6344 -0.7730
vn -0.0000 0.4714 -0.8819
vn -0.0000 0.2903 -0.9569
vn -0.8528 -0.1516 0.4998
vn -0.0000 0.0980 -0.9952
vn -0.8528 -0.0512 0.5198
vn -0.6879 -0.2107 0.6945
vn -0.6879 -0.0711 0.7223
vn -0.3692 0.2698 -0.8893
vn -0.3692 0.0911 -0.9249
vn -0.3692 -0.0911 -0.9249
vn -0.3692 -0.2698 -0.8893
vn -0.6879 0.0711 0.7223
vn -0.6879 0.2107 0.6945
vn -0.8528 0.0512 0.5198
vn -0.8528 0.1516 0.4998
vn 0.0000 -0.0980 -0.9952
vn -0.0000 -0.2903 -0.9569
vn -0.0000 -0.4714 -0.8819
vn -0.8528 0.2462 0.4606
vn -0.0000 -0.6344 -0.7730
vn -0.8528 0.3313 0.4037
vn -0.6879 0.3421 0.6401
vn -0.6879 0.4604 0.5610
vn -0.3692 -0.4381 -0.8196
vn -0.3692 -0.5896 -0.7184
vn -0.3692 -0.7184 -0.5896
vn -0.3692 -0.8196 -0.4381
vn -0.6879 0.5610 0.4604
vn -0.6879 0.6401 0.3421
vn -0.8528 0.4037 0.3313
vn -0.8528 0.4606 0.2462
vn -0.0000 -0.7730 -0.6344
vn 0.0000 -0.8819 -0.4714
vn 0.0000 -0.9569 -0.2903
vn -0.8528 0.4998 0.1516
vn -0.0000 -0.9952 -0.0980
vn -0.8528 0.5198 0.0512
vn -0.6879 0.6945 0.2107
vn -0.6879 0.7223 0.0711
vn -0.3692 -0.8893 -0.2698
vn -0.3692 -0.9249 -0.0911
vn -0.3692 -0.9249 0.0911
vn -0.3692 -0.8893 0.2698
vn -0.6879 0.7223 -0.0711
vn -0.6879 0.6945 -0.2107
vn -0.8528 0.5198 -0.0512
vn -0.8528 0.4998 -0.1516
vn 0.0000 -0.9952 0.0980
vn 0.0000 -0.9569 0.2903
vn 0.0000 -0.8819 0.4714
vn -0.8528 0.4606 -0.2462
vn 0.0000 -0.7730 0.6344
vn -0.8528 0.4037 -0.3313
vn -0.6879 0.6401 -0.3421
vn -0.6879 0.5610 -0.4604
vn -0.3692 -0.8196 0.4381
vn -0.3692 -0.7184 0.5896
vn -0.3692 -0.5896 0.7184
vn -0.3692 -0.4381 0.8196
vn -0.6879 0.4604 -0.5610
vn -0.6879 0.3421 -0.6401
vn -0.8528 0.3313 -0.4037
vn -0.8528 0.2462 -0.4606
vn 0.0000 -0.6344 0.7730
vn 0.0000 -0.4714 0.8819
vn 0.0000 -0.2903 0.9569
vn -0.8528 0.1516 -0.4998
vn 0.0000 -0.0980 0.9952
vn -0.8528 0.0512 -0.5198
vn -0.6879 0.2107 -0.6945
vn -0.6879 0.0711 -0.7223
vn -0.3692 -0.2698 0.8893
vn -0.3692 -0.0911 0.9249
vn -0.3692 0.0911 0.9249
vn -0.3692 0.2698 0.8893
vn -0.6879 -0.0711 -0.7223
vn -0.6879 -0.2107 -0.6945
vn -0.8528 -0.0512 -0.5198
vn -0.8528 -0.1516 -0.4998
vn 0.0000 0.0980 0.9952
vn 0.0000 0.2903 0.9569
vn 0.0000 0.4714 0.8819
vn -0.8528 -0.2462 -0.4606
vn 0.0000 0.6344 0.7730
vn -0.8528 -0.3313 -0.4037
vn -0.6879 -0.3421 -0.6401
vn -0.6879 -0.4604 -0.5610
vn -0.3692 0.4381 0.8196
vn -0.3692 0.5896 0.7184
vn -0.3692 0.7184 0.5896
vn -0.3692 0.8196 0.4381
vn -0.6879 -0.5610 -0.4604
vn -0.6879 -0.6401 -0.3421
vn -0.8528 -0.4037 -0.3313
vn -0.8528 -0.4606 -0.2462
vn 0.0000 0.7730 0.6344
vn 0.0000 0.8819 0.4714
usemtl Metal
s off
f 1/1/1 4/2/1 5/3/1 185/4/1 186/5/1 170/6/1 168/7/1 166/8/1 187/9/1 147/10/1 145/11/1 143/12/1 188/13/1 124/14/1 122/15/1 120/16/1 189/17/1 101/18/1 99/19/1 97/20/1 190/21/1 78/22/1 76/23/1 74/24/1 191/25/1 55/26/1 53/27/1 51/28/1 192/29/1 32/30/1 30/31/1 2/32/1
f 1/33/2 2/34/2 28/35/2 3/36/2
f 4/37/3 1/38/3 3/39/3 6/40/3
f 5/41/4 4/37/4 6/40/4 7/42/4
f 6/40/5 8/43/5 9/44/5 7/42/5
f 3/39/6 10/45/6 8/43/6 6/40/6
f 8/43/7 11/46/7 12/47/7 9/44/7
f 10/45/8 13/48/8 11/46/8 8/43/8
f 11/46/9 14/49/9 15/50/9 12/47/9
f 13/48/9 16/51/9 14/49/9 11/46/9
f 14/49/10 17/52/10 18/53/10 15/50/10
f 16/51/11 19/54/11 17/52/11 14/49/11
f 20/55/9 21/56/9 40/57/9 41/58/9 42/59/9 43/60/9 63/61/9 64/62/9 65/63/9 66/64/9 86/65/9 87/66/9 88/67/9 89/68/9 109/69/9 110/70/9 111/71/9 112/72/9 132/73/9 133/74/9 134/75/9 135/76/9 155/77/9 156/78/9 157/79/9 158/80/9 178/81/9 179/82/9 180/83/9 18/84/9 17/85/9 19/86/9
f 22/87/12 20/88/12 19/89/12 16/90/12
f 23/91/13 21/92/13 20/88/13 22/87/13
f 24/93/9 22/87/9 16/90/9 13/94/9
f 25/95/9 23/91/9 22/87/9 24/93/9
f 26/96/14 24/93/14 13/94/14 10/97/14
f 27/98/15 25/95/15 24/93/15 26/96/15
f 28/35/16 26/96/16 10/97/16 3/36/16
f 29/99/17 27/98/17 26/96/17 28/35/17
f 2/34/18 30/100/18 29/99/18 28/35/18
f 30/100/19 32/101/19 31/102/19 29/99/19
f 31/102/20 34/103/20 27/98/20 29/99/20
f 32/101/21 192/104/21 33/105/21 31/102/21
f 33/105/22 35/106/22 34/103/22 31/102/22
f 34/103/23 36/107/23 25/95/23 27/98/23
f 35/106/24 37/108/24 36/107/24 34/103/24
f 36/107/9 38/109/9 23/91/9 25/95/9
f 37/108/9 39/110/9 38/109/9 36/107/9
f 38/109/25 40/111/25 21/92/25 23/91/25
f 39/110/26 41/112/26 40/111/26 38/109/26
f 44/113/27 42/114/27 41/112/27 39/110/27
f 45/115/28 43/116/28 42/114/28 44/113/28
f 46/117/9 44/113/9 39/110/9 37/108/9
f 47/118/9 45/115/9 44/113/9 46/117/9
f 48/119/29 46/117/29 37/108/29 35/106/29
f 49/120/30 47/118/30 46/117/30 48/119/30
f 50/121/31 48/119/31 35/106/31 33/105/31
f 52/122/32 49/120/32 48/119/32 50/121/32
f 192/104/33 51/123/33 50/121/33 33/105/33
f 51/123/34 53/124/34 52/122/34 50/121/34
f 53/124/35 55/125/35 54/126/35 52/122/35
f 54/126/36 57/127/36 49/120/36 52/122/36
f 55/125/37 191/128/37 56/129/37 54/126/37
f 56/129/38 58/130/38 57/127/38 54/126/38
f 57/127/39 59/131/39 47/118/39 49/120/39
f 58/130/40 60/132/40 59/131/40 57/127/40
f 59/131/9 61/133/9 45/115/9 47/118/9
f 60/132/9 62/134/9 61/133/9 59/131/9
f 61/133/41 63/135/41 43/116/41 45/115/41
f 62/134/42 64/136/42 63/135/42 61/133/42
f 67/137/43 65/138/43 64/136/43 62/134/43
f 68/139/44 66/140/44 65/138/44 67/137/44
f 69/141/9 67/137/9 62/134/9 60/132/9
f 70/142/9 68/139/9 67/137/9 69/141/9
f 71/143/45 69/141/45 60/132/45 58/130/45
f 72/144/46 70/142/46 69/141/46 71/143/46
f 73/145/47 71/143/47 58/130/47 56/129/47
f 75/146/48 72/144/48 71/143/48 73/145/48
f 191/128/49 74/147/49 73/145/49 56/129/49
f 74/147/50 76/148/50 75/146/50 73/145/50
f 76/148/51 78/149/51 77/150/51 75/146/51
f 77/150/52 80/151/52 72/144/52 75/146/52
f 78/149/53 190/152/53 79/153/53 77/150/53
f 79/153/54 81/154/54 80/151/54 77/150/54
f 80/151/55 82/155/55 70/142/55 72/144/55
f 81/154/56 83/156/56 82/155/56 80/151/56
f 82/155/9 84/157/9 68/139/9 70/142/9
f 83/156/9 85/158/9 84/157/9 82/155/9
f 84/157/57 86/159/57 66/140/57 68/139/57
f 85/158/58 87/160/58 86/159/58 84/157/58
f 90/161/59 88/162/59 87/160/59 85/158/59
f 91/163/60 89/164/60 88/162/60 90/161/60
f 92/165/9 90/161/9 85/158/9 83/156/9
f 93/166/9 91/163/9 90/161/9 92/165/9
f 94/167/61 92/165/61 83/156/61 81/154/61
f 95/168/62 93/166/62 92/165/62 94/167/62
f 96/169/63 94/167/63 81/154/63 79/153/63
f 98/170/64 95/168/64 94/167/64 96/169/64
f 190/152/65 97/171/65 96/169/65 79/153/65
f 97/171/66 99/172/66 98/170/66 96/169/66
f 99/172/67 101/173/67 100/174/67 98/170/67
f 100/174/68 103/175/68 95/168/68 98/170/68
f 101/173/69 189/176/69 102/177/69 100/174/69
f 102/177/70 104/178/70 103/175/70 100/174/70
f 103/175/71 105/179/71 93/166/71 95/168/71
f 104/178/72 106/180/72 105/179/72 103/175/72
f 105/179/9 107/181/9 91/163/9 93/166/9
f 106/180/9 108/182/9 107/181/9 105/179/9
f 107/181/73 109/183/73 89/164/73 91/163/73
f 108/182/74 110/184/74 109/183/74 107/181/74
f 113/185/75 111/186/75 110/184/75 108/182/75
f 114/187/76 112/188/76 111/186/76 113/185/76
f 115/189/9 113/185/9 108/182/9 106/180/9
f 116/190/9 114/187/9 113/185/9 115/189/9
f 117/191/77 115/189/77 106/180/77 104/178/77
f 118/192/78 116/190/78 115/189/78 117/191/78
f 119/193/79 117/191/79 104/178/79 102/177/79
f 121/194/80 118/192/80 117/191/80 119/193/80
f 189/176/81 120/195/81 119/193/81 102/177/81
f 120/195/82 122/196/82 121/194/82 119/193/82
f 122/196/83 124/197/83 123/198/83 121/194/83
f 123/198/84 126/199/84 118/192/84 121/194/84
f 124/197/85 188/200/85 125/201/85 123/198/85
f 125/201/86 127/202/86 126/199/86 123/198/86
f 126/199/87 128/203/87 116/190/87 118/192/87
f 127/202/88 129/204/88 128/203/88 126/199/88
f 128/203/9 130/205/9 114/187/9 116/190/9
f 129/204/9 131/206/9 130/205/9 128/203/9
f 130/205/89 132/207/89 112/188/89 114/187/89
f 131/206/90 133/208/90 132/207/90 130/205/90
f 136/209/91 134/210/91 133/208/91 131/206/91
f 137/211/92 135/212/92 134/210/92 136/209/92
f 138/213/9 136/209/9 131/206/9 129/204/9
f 139/214/9 137/211/9 136/209/9 138/213/9
f 140/215/93 138/213/93 129/204/93 127/202/93
f 141/216/94 139/214/94 138/213/94 140/215/94
f 142/217/95 140/215/95 127/202/95 125/201/95
f 144/218/96 141/216/96 140/215/96 142/217/96
f 188/200/97 143/219/97 142/217/97 125/201/97
f 143/219/98 145/220/98 144/218/98 142/217/98
f 145/220/99 147/221/99 146/222/99 144/218/99
f 146/222/100 149/223/100 141/216/100 144/218/100
f 147/221/101 187/224/101 148/225/101 146/222/101
f 148/225/102 150/226/102 149/223/102 146/222/102
f 149/223/103 151/227/103 139/214/103 141/216/103
f 150/226/104 152/228/104 151/227/104 149/223/104
f 151/227/9 153/229/9 137/211/9 139/214/9
f 152/228/9 154/230/9 153/229/9 151/227/9
f 153/229/105 155/231/105 135/212/105 137/211/105
f 154/230/106 156/232/106 155/231/106 153/229/106
f 159/233/107 157/234/107 156/232/107 154/230/107
f 160/235/108 158/236/108 157/234/108 159/233/108
f 161/237/9 159/233/9 154/230/9 152/228/9
f 162/238/9 160/235/9 159/233/9 161/237/9
f 163/239/109 161/237/109 152/228/109 150/226/109
f 164/240/110 162/238/110 161/237/110 163/239/110
f 165/241/111 163/239/111 150/226/111 148/225/111
f 167/242/112 164/240/112 163/239/112 165/241/112
f 187/224/113 166/243/113 165/241/113 148/225/113
f 166/243/114 168/244/114 167/242/114 165/241/114
f 168/244/115 170/245/115 169/246/115 167/242/115
f 169/246/116 172/247/116 164/240/116 167/242/116
f 170/245/117 186/248/117 171/249/117 169/246/117
f 171/249/118 173/250/118 172/247/118 169/246/118
f 172/247/119 174/251/119 162/238/119 164/240/119
f 173/250/120 175/252/120 174/251/120 172/247/120
f 174/251/9 176/253/9 160/235/9 162/238/9
f 175/252/9 177/254/9 176/253/9 174/251/9
f 176/253/121 178/255/121 158/236/121 160/235/121
f 177/254/122 179/256/122 178/255/122 176/253/122
f 181/257/123 180/258/123 179/256/123 177/254/123
f 15/50/124 18/53/124 180/258/124 181/257/124
f 182/259/9 181/257/9 177/254/9 175/252/9
f 12/47/9 15/50/9 181/257/9 182/259/9
f 183/260/125 182/259/125 175/252/125 173/250/125
f 9/44/126 12/47/126 182/259/126 183/260/126
f 184/261/127 183/260/127 173/250/127 171/249/127
f 7/42/128 9/44/128 183/260/128 184/261/128
f 186/248/129 185/262/129 184/261/129 171/249/129
f 185/262/130 5/41/130 7/42/130 184/261/130
